<svg xmlns="http://www.w3.org/2000/svg" width="288" height="184" viewBox="0 0 288 184">
    <g fill="none" fill-rule="evenodd">
        <path fill="#FFC659" d="M190.847 88.171c-1.804 5.019 6.842 9.32 4.653 14.84-1.007 2.542-14.968 5.07-12.261 9.349 2.707 4.278-1.72 10.3-4.844 12.35-5.758 3.78-5.079 6.678 3 12.22 8.08 5.544 3.848 20.563 3.848 26.57 0 6.007-89.8 8.5-110.801 8.5-14.001 0-23.815-2.833-29.442-8.5 1.155-10.631 6.283-15.947 15.382-15.947 13.65 0 6.444-10.28 11.63-22.843 5.186-12.561 16.755-2.196 21.218-13.677 4.463-11.48 14.114-15.281 19.88-13.38 5.764 1.9 11.49 3.37 16.775-4.97 5.285-8.34 20.732 2.413 28.427-6.004 4.303-4.707 10.686-5.536 12.305-8.334.52-.897 1.402-1.345 2.649-1.345 12.922 4.102 18.783 7.825 17.58 11.171z"/>
        <path fill="#FFC659" d="M148.077 84.171c.901 5.019 2.71 5.86 3.804 11.381.503 2.541 1.353 8.53 0 12.808-1.354 4.278.86 10.3 2.421 12.35 2.88 3.78 2.54 6.678-1.5 12.22-4.04 5.544-1.923 20.563-1.923 26.57 0 6.007 44.9 8.5 55.4 8.5 7 0 11.908-2.833 14.721-8.5-.578-10.631-3.141-15.947-7.691-15.947-6.825 0 1.284-6.536-1.309-19.098s-9.269-8.562-11.5-20.043c-2.231-11.48-10.672-12.66-13.555-10.76-2.882 1.9-5.745 3.371-8.388-4.969-2.642-8.34-10.366 2.413-14.213-6.004-2.152-4.707-5.343-5.536-6.153-8.334-.259-.897-.7-1.345-1.324-1.345-6.461 4.102-9.391 7.825-8.79 11.171z"/>
        <path fill="#FFC659" d="M134.5 172c47.773 0 86.626 0 86.5-11.5-.126-11.5-38.727-11.5-86.5-11.5S48 154.149 48 160.5 86.727 172 134.5 172z"/>
        <g>
            <g>
                <g>
                    <g transform="rotate(12 -73.287 447.546) scale(-1 1) rotate(-6 88.987 1058.34) scale(-1 1) rotate(-7 22.525 455.096) translate(0 9)">
                        <rect width="51" height="51" x="-1.5" y="-1.5" fill="#FFF" stroke="#242733" stroke-width="3" rx="8"/>
                        <path fill="#F2F3F5" d="M8 0h32c4.418 0 8 3.582 8 8v8H0V8c0-4.418 3.582-8 8-8z"/>
                    </g>
                    <g transform="rotate(12 -73.287 447.546) scale(-1 1) rotate(-6 88.987 1058.34) scale(-1 1) rotate(-7 22.525 455.096) rotate(-30 19.866 -55.579)">
                        <rect width="3" height="11" fill="#242733" stroke="#242733" stroke-width="4" rx="1.5"/>
                        <path stroke="#FFF" stroke-linecap="round" stroke-linejoin="round" d="M2.5 1.5L2.5 4.5"/>
                    </g>
                    <g transform="rotate(12 -73.287 447.546) scale(-1 1) rotate(-6 88.987 1058.34) scale(-1 1) rotate(-7 22.525 455.096) rotate(-30 10.366 -20.124)">
                        <rect width="3" height="11" fill="#242733" stroke="#242733" stroke-width="4" rx="1.5"/>
                        <path stroke="#FFF" stroke-linecap="round" stroke-linejoin="round" d="M2.5 1.5L2.5 4.5"/>
                    </g>
                </g>
                <path stroke="#242733" stroke-linecap="round" stroke-linejoin="round" stroke-width="3" d="M39.89 32.126L34 33.736 37.89 38.126" transform="rotate(12 -73.287 447.546) scale(-1 1) rotate(-6 88.987 1058.34) rotate(-8 36.945 35.126)"/>
                <path stroke="#242733" stroke-linecap="round" stroke-linejoin="round" stroke-width="3" d="M19.89 30.126L14 31.736 17.89 36.126" transform="rotate(12 -73.287 447.546) scale(-1 1) rotate(-6 88.987 1058.34) scale(-1 1) rotate(-27 0 103.708)"/>
                <path fill="#242733" stroke="#242733" stroke-linecap="round" stroke-linejoin="round" stroke-width="2" d="M17.706 43.288c0 4.418 3.581 8 8 8 4.418 0 8-3.582 8-8h-16z" transform="rotate(12 -73.287 447.546) scale(-1 1) rotate(-6 88.987 1058.34)"/>
            </g>
            <g stroke-linecap="round" stroke-linejoin="round">
                <path stroke="#FFF" stroke-width="2" d="M39.163 88.319L10.75 88.469M13.5 80.672L.75 80.469M40.179 70.888L14.179 70.888M45.74 80.787L24.75 80.469" transform="rotate(12 -73.287 447.546) rotate(-90 61.5 61)"/>
                <path stroke="#242733" stroke-width="3" d="M95.942 148.637L79.973 138.429M93.706 139.608L77.737 129.4M80.333 5.449L63.68 23.301M77.757.671L69.011 9.9M82.228 14.665L73.481 23.893M121.212 92.255L112.947 91.549" transform="rotate(12 -73.287 447.546) rotate(-90 61.5 61)"/>
            </g>
        </g>
        <path stroke="#FFF" stroke-linecap="round" stroke-linejoin="round" stroke-width="2" d="M90.545 33.527L100.545 31.527M90.545 33.527L100.545 31.527"/>
        <path fill="#FF623B" d="M231.934 78.012l-5.414-1.08c-1.084-.215-1.787-1.268-1.571-2.351.086-.432.312-.823.642-1.113l4.15-3.641c.495-.435.744-1.084.667-1.738l-.647-5.483c-.13-1.097.655-2.091 1.752-2.22.436-.052.878.041 1.256.266l4.746 2.822c.566.336 1.26.372 1.859.097l5.014-2.31c1.004-.462 2.192-.023 2.654.98.184.4.23.848.134 1.277l-1.217 5.386c-.145.642.035 1.314.482 1.798l3.746 4.055c.75.812.7 2.077-.112 2.826-.323.299-.735.483-1.173.523l-5.498.507c-.655.06-1.24.44-1.56 1.014l-2.7 4.816c-.54.964-1.76 1.307-2.723.767-.383-.215-.685-.55-.86-.955l-2.18-5.072c-.26-.605-.801-1.043-1.447-1.171zM82.713 64.175l-5.5 6.051c-.743.818-2.008.878-2.825.135-.326-.296-.545-.69-.623-1.123l-1.458-8.047c-.117-.647-.546-1.196-1.146-1.467l-7.454-3.36c-1.007-.454-1.456-1.639-1.002-2.646.181-.4.489-.73.876-.94l7.203-3.872c.58-.312.969-.889 1.04-1.543l.893-8.129c.12-1.098 1.109-1.89 2.207-1.77.437.049.846.24 1.164.544l5.909 5.653c.475.455 1.144.646 1.789.513l8.006-1.663c1.082-.225 2.14.47 2.365 1.551.09.431.035.88-.156 1.275l-3.55 7.367c-.286.593-.262 1.288.064 1.86l4.056 7.1c.548.96.214 2.182-.745 2.73-.382.218-.825.304-1.26.245l-8.104-1.1c-.652-.09-1.306.149-1.749.636zM179.572 41.54l-9.002 3.052c-1.046.355-2.182-.205-2.537-1.251-.14-.417-.14-.868 0-1.285l3.053-9.002c.211-.623.103-1.31-.291-1.838l-5.685-7.619c-.66-.885-.479-2.138.406-2.799.353-.263.782-.402 1.222-.397l9.505.122c.658.008 1.278-.308 1.658-.845l5.489-7.761c.638-.902 1.886-1.116 2.788-.478.359.254.624.62.755 1.04l2.821 9.076c.196.629.688 1.121 1.316 1.316l9.078 2.822c1.054.328 1.644 1.449 1.316 2.504-.13.42-.396.785-.755 1.039l-7.761 5.488c-.538.38-.854 1-.845 1.659l.121 9.505c.014 1.104-.87 2.01-1.974 2.025-.44.006-.87-.134-1.222-.397l-7.618-5.685c-.527-.394-1.215-.503-1.838-.291zM233.987 132.758l-3.342 1.133c-1.046.355-2.181-.206-2.536-1.252-.141-.416-.141-.868 0-1.284l1.133-3.342c.212-.624.103-1.311-.29-1.839l-2.111-2.828c-.661-.885-.479-2.139.406-2.8.353-.262.782-.402 1.222-.396l3.529.045c.658.008 1.278-.308 1.658-.845l2.038-2.881c.638-.902 1.886-1.116 2.787-.478.36.254.625.619.756 1.039l1.047 3.37c.195.628.688 1.12 1.316 1.316l3.37 1.047c1.055.328 1.644 1.45 1.316 2.504-.13.42-.396.785-.755 1.04l-2.881 2.037c-.537.38-.853 1-.845 1.658l.045 3.529c.014 1.104-.87 2.011-1.974 2.025-.44.006-.87-.134-1.222-.397l-2.828-2.11c-.528-.394-1.215-.503-1.839-.291zM62.987 109.758l-3.342 1.133c-1.046.355-2.181-.206-2.536-1.252-.141-.416-.141-.868 0-1.284l1.133-3.342c.212-.624.103-1.311-.29-1.839l-2.111-2.828c-.661-.885-.479-2.139.406-2.8.353-.262.782-.402 1.222-.396l3.529.045c.658.008 1.278-.308 1.658-.845l2.038-2.881c.638-.902 1.886-1.116 2.787-.478.36.254.625.619.756 1.039l1.047 3.37c.195.628.688 1.12 1.316 1.316l3.37 1.047c1.055.328 1.644 1.45 1.316 2.504-.13.42-.396.785-.755 1.04l-2.881 2.037c-.537.38-.853 1-.845 1.658l.045 3.529c.014 1.104-.87 2.011-1.974 2.025-.44.006-.87-.134-1.222-.397l-2.828-2.11c-.528-.394-1.215-.503-1.839-.291z"/>
        <path stroke="#FFF" stroke-linecap="round" stroke-linejoin="round" stroke-width="2" d="M157.75 21.413L162.5 14.107M79 45L75 40M85 46L89 45M234.096 63.885l2.002 1.348c1.178.793 2.689.902 3.969.286l3.394-1.634h0M146 23L153 23M99.386 107.61c-.851 8.77-3.751 13.458-8.7 14.066-7.424.911-16.039 2.37-12.551 16.733M204.244 128.756c1.27 4.036 1.727 7.347 1.367 9.933-.54 3.88-.96 8.437 6.905 8.649"/>
        <circle cx="229.5" cy="150.5" r="5.5" fill="#FFC659"/>
        <circle cx="218.5" cy="137.5" r="2.5" fill="#FFC659"/>
        <circle cx="62.5" cy="140.5" r="5.5" fill="#FFC659"/>
        <circle cx="31.5" cy="155.5" r="8.5" fill="#FFC659"/>
        <ellipse cx="123" cy="171.5" fill="#FFC659" rx="19" ry="5.5"/>
        <ellipse cx="76" cy="169.5" fill="#FFC659" rx="15" ry="5.5"/>
        <ellipse cx="166.5" cy="169" fill="#FFC659" rx="27.5" ry="13"/>
        <circle cx="11.5" cy="157.5" r="3.5" fill="#FFC659"/>
    </g>
</svg>
