<svg xmlns="http://www.w3.org/2000/svg" width="256" height="256" viewBox="0 0 256 256">
    <g fill="none" fill-rule="evenodd">
        <g>
            <g transform="translate(98 79) translate(0 11.073)">
                <rect width="79" height="78.927" x="-1.5" y="-1.5" fill="#FFF" stroke="#242733" stroke-width="3" rx="8"/>
                <path fill="#242733" stroke="#242733" stroke-linecap="round" stroke-linejoin="round" stroke-width="2" d="M29 47.455c0 6.988 4.03 12.654 9 12.654s9-5.666 9-12.654H29z"/>
                <path fill="#F2F3F5" d="M8 0h60c4.418 0 8 3.582 8 8v17.31H0V8c0-4.418 3.582-8 8-8z"/>
            </g>
            <g transform="translate(98 79) translate(17.417)">
                <rect width="4.75" height="17.4" fill="#242733" stroke="#242733" stroke-width="4" rx="1.5"/>
                <rect width="4.75" height="17.4" x="36.417" fill="#242733" stroke="#242733" stroke-width="4" rx="1.5"/>
                <path stroke="#FFF" stroke-linecap="round" stroke-linejoin="round" stroke-width="2" d="M3.958 2.373L3.958 7.118M40.375 2.373L40.375 7.118"/>
            </g>
        </g>
        <circle cx="123.5" cy="123.5" r="2.5" fill="#242733"/>
        <path stroke="#242733" stroke-linecap="round" stroke-linejoin="round" stroke-width="3" d="M154.345 121.435L148.345 123.045 152.307 127.435" transform="rotate(-27 151.345 124.435)"/>
        <g>
            <path fill="#FFF" d="M18.332 58.183L8.003 59.594c-.547.075-1.051-.308-1.126-.855-.026-.19.003-.383.084-.557l4.524-9.754c.078-.168.108-.356.086-.54l-1.289-10.675c-.066-.548.325-1.046.873-1.112.19-.023.383.009.555.092l9.387 4.534c.177.085.376.117.57.09l10.33-1.411c.547-.075 1.051.308 1.126.855.026.19-.003.383-.084.557l-4.524 9.754c-.078.168-.108.356-.086.54l1.289 10.675c.066.548-.325 1.046-.873 1.112-.19.023-.383-.009-.555-.092l-9.387-4.534c-.177-.085-.376-.117-.57-.09z" transform="translate(17 132)"/>
            <path stroke="#FFF" stroke-linecap="round" stroke-linejoin="round" stroke-width="2" d="M64 0c-5.303 10.706-11.134 15.279-17.493 13.718C36.967 11.377 25.703 9.167 23 29" transform="translate(17 132)"/>
        </g>
        <g>
            <path fill="#FFF" d="M37.417 16.82l-6.853.881c-.547.07-1.048-.317-1.119-.864-.024-.19.006-.383.088-.556l2.956-6.245c.081-.173.112-.366.088-.555l-.881-6.853c-.07-.548.316-1.05.864-1.12.19-.024.382.006.555.088l6.246 2.956c.172.082.365.112.555.088l6.853-.881c.548-.07 1.049.316 1.12.864.024.19-.007.383-.089.555l-2.955 6.246c-.082.173-.113.365-.088.555l.88 6.853c.071.548-.316 1.049-.864 1.12-.19.024-.382-.007-.555-.089l-6.245-2.955c-.173-.082-.366-.112-.556-.088z" transform="translate(183 94.937)"/>
            <path stroke="#FFF" stroke-linecap="round" stroke-linejoin="round" stroke-width="2" d="M23 18.063c-3.274 5.277-6.564 7.357-9.871 6.242C8.169 22.632 2.288 20.942 0 31.063" transform="translate(183 94.937)"/>
        </g>
        <g>
            <path fill="#FFC659" d="M25.334 11.051l-3.747.484c-.548.071-1.05-.316-1.12-.863-.025-.19.006-.382.087-.554l1.62-3.442c.082-.172.112-.364.088-.553l-.483-3.772c-.07-.548.317-1.05.865-1.12.19-.023.384.007.557.09l3.411 1.622c.174.082.367.113.558.089l3.747-.484c.547-.071 1.049.316 1.12.863.024.19-.006.382-.088.554l-1.62 3.442c-.081.172-.112.364-.087.553l.482 3.772c.07.548-.317 1.049-.865 1.12-.19.023-.383-.007-.556-.09L25.89 11.14c-.173-.082-.367-.113-.557-.089z" transform="rotate(-50 138.806 -157)"/>
            <path stroke="#FFF" stroke-linecap="round" stroke-linejoin="round" stroke-width="2" d="M15.588 11.751c-2.135 3.653-4.281 5.094-6.438 4.321-3.235-1.158-7.07-2.328-8.562 4.68" transform="rotate(-50 138.806 -157)"/>
        </g>
        <g>
            <path fill="#FF623B" d="M40.089 17.345l-7.114.916c-.548.07-1.05-.316-1.12-.864-.024-.19.006-.382.088-.555l3.07-6.501c.081-.173.112-.365.087-.554l-.914-7.133c-.07-.547.316-1.048.864-1.119.19-.024.383.007.556.089l6.482 3.073c.173.083.366.113.556.089l7.114-.917c.548-.07 1.049.317 1.12.864.024.19-.006.382-.088.555l-3.07 6.501c-.082.173-.112.365-.088.555l.915 7.132c.07.548-.317 1.049-.865 1.12-.19.023-.382-.007-.555-.09l-6.482-3.073c-.173-.082-.366-.113-.556-.088z" transform="rotate(55 -66.651 274.704)"/>
            <path stroke="#FFF" stroke-linecap="round" stroke-linejoin="round" stroke-width="2" d="M24.69 18.326c-3.416 5.682-6.85 7.923-10.3 6.722-5.176-1.802-11.313-3.621-13.7 7.278" transform="rotate(55 -66.651 274.704)"/>
        </g>
        <path fill="#FF623B" d="M48.105 58.865l-2.28.293c-.549.07-1.05-.316-1.12-.864-.025-.19.006-.382.088-.555l.983-2.079c.082-.173.113-.365.088-.555l-.293-2.28c-.07-.549.317-1.05.864-1.12.19-.025.383.006.556.088l2.078.983c.173.082.366.113.556.088l2.28-.293c.548-.07 1.05.317 1.12.864.024.19-.006.383-.088.556l-.984 2.078c-.082.173-.112.366-.088.556l.293 2.28c.07.548-.316 1.05-.864 1.12-.19.024-.382-.006-.555-.088l-2.079-.984c-.173-.082-.365-.112-.555-.088z"/>
        <path stroke="#FFF" stroke-linecap="round" stroke-linejoin="round" stroke-width="2" d="M56.16 57.648c4.671.443 7.168 1.96 7.49 4.551"/>
    </g>
</svg>
