<svg xmlns="http://www.w3.org/2000/svg" width="288" height="296" viewBox="0 0 288 296">
    <g fill="none" fill-rule="evenodd">
        <g stroke="#242733" stroke-linecap="round" stroke-linejoin="round" stroke-width="3">
            <path d="M0 120V24C0 10.745 10.745 0 24 0h80c13.255 0 24 10.745 24 24v136" transform="translate(80 96)"/>
            <path fill="#242733" d="M48 0v4c0 2.21 1.79 4 4 4h24c2.21 0 4-1.79 4-4V0H48z" transform="translate(80 96)"/>
        </g>
        <path fill="#FFF" stroke="#242733" stroke-linecap="round" stroke-linejoin="round" stroke-width="3" d="M80 224L80 256"/>
        <rect width="96" height="32" x="96" y="128" fill="#CCCEDA" rx="4"/>
        <rect width="96" height="32" x="96" y="168" fill="#F2F3F5" rx="4"/>
        <rect width="96" height="32" x="96" y="208" fill="#F2F3F5" rx="4"/>
        <path stroke="#FFF" stroke-linecap="round" stroke-linejoin="round" stroke-width="2" d="M132 98L148 98M151 98L155 98"/>
        <g transform="rotate(-22 186.264 23.56)">
            <path fill="#FF623B" d="M10.376 2.641c4.142 1.788 9.163 2.879 15.064 3.27 5.176.345 10.353.107 15.53-.713 2.183-.346 4.232 1.143 4.577 3.325.068.43.066.868-.007 1.296-.473 2.78-.518 6.262-.135 10.443.638 6.964 2.496 16.291 5.576 27.98.563 2.137-.713 4.325-2.85 4.888-.659.173-1.351.176-2.012.006-7.2-1.846-13.694-3.106-19.483-3.78-6.576-.764-13.21-.884-19.9-.36-1.83.144-3.522-.975-4.106-2.714C.412 39.67.06 31.332 1.576 21.272c1.11-7.364 2.251-12.778 3.427-16.243.71-2.092 2.98-3.213 5.072-2.503.102.034.202.073.301.115z"/>
            <path stroke="#FFF" stroke-linecap="round" stroke-linejoin="round" stroke-width="3" d="M15.296 42.448c-.493-5.628 3.568-10.58 9.07-11.062 2.299-.2 4.485.41 6.288 1.6m3.532 4.01c.556 1.126.917 2.377 1.034 3.708l.154 1.765"/>
            <circle cx="24.393" cy="19.906" r="6" stroke="#FFF" stroke-linejoin="round" stroke-width="3"/>
        </g>
        <g>
            <path fill="#4D6EFF" d="M6.123 3.498c4.388 1.35 9.737 1.328 16.047-.065C29.674 1.775 37.35.935 45.198.913c2.209-.006 4.005 1.78 4.01 3.989.001.19-.012.38-.038.57-.73 5.179-.84 10.734-.33 16.665.5 5.841 1.57 11.65 3.206 17.43.602 2.125-.634 4.336-2.76 4.938-.393.111-.802.162-1.212.149-8.155-.25-15.261.652-21.32 2.708-5.574 1.893-10.264 2.653-14.07 2.281-1.964-.192-3.495-1.788-3.605-3.758-.415-7.453-1.925-14.794-4.528-22.023C2.495 18.155 1.297 12.73.956 7.586.81 5.382 2.478 3.476 4.682 3.33c.487-.032.975.025 1.441.168z" transform="rotate(5 7.289 1136.833)"/>
            <path fill="#00A89D" d="M108.55 24.545c1.044 1.31 2.707 2.358 4.99 3.143 2.598.894 5.1 2.077 7.504 3.547.471.288.62.904.331 1.375-.027.044-.057.086-.09.125-1.175 1.384-2.216 3.011-3.124 4.881-.898 1.848-1.6 3.8-2.107 5.854-.133.536-.675.864-1.21.731-.112-.027-.218-.074-.314-.137-2.48-1.644-4.836-2.721-7.068-3.232-2.135-.489-3.729-1.174-4.782-2.055-.364-.305-.464-.823-.24-1.24 1.199-2.229 2.036-4.628 2.512-7.198.401-2.164 1.048-4.05 1.941-5.656.269-.483.877-.657 1.36-.389.114.064.215.149.296.251z" transform="rotate(5 7.289 1136.833)"/>
            <path stroke="#FFF" stroke-linecap="round" stroke-linejoin="round" stroke-width="3" d="M20.9 39.465c-.584-2.176-.402-4.377.38-6.317m1.982-3.112c1.233-1.317 2.837-2.317 4.708-2.819 2.314-.62 4.655-.375 6.681.535 1.42.638 2.684 1.602 3.677 2.825.859 1.058 1.514 2.31 1.89 3.712l.448 1.673" transform="rotate(5 7.289 1136.833)"/>
            <path stroke="#FFF" stroke-linejoin="round" stroke-width="3" d="M26.676 22.388c1.73-.464 3.08-1.638 3.82-3.126.63-1.263.817-2.752.423-4.223-.858-3.2-4.148-5.1-7.348-4.242-3.201.857-5.1 4.147-4.243 7.348.858 3.201 4.148 5.1 7.348 4.243z" transform="rotate(5 7.289 1136.833)"/>
        </g>
        <g transform="rotate(8 -386.474 1640.724)">
            <path fill="#FFC659" d="M11.368 1.973c3.85.84 9.003 1.26 15.455 1.26 8.138 0 14.622-.668 19.452-2.004 2.13-.589 4.333.66 4.922 2.79.072.261.118.53.136.801.194 2.932-.308 6.839-1.505 11.72-3.09 12.603 2.401 24.209-.443 31.436-2.843 7.227-9.516-.61-23.622-3.597-6.468-1.37-12.55-1.226-18.245.43-2.121.617-4.341-.603-4.958-2.724-.21-.723-.212-1.492-.005-2.216 1.778-6.218 2.985-11.95 3.622-17.194.66-5.442.777-10.937.35-16.487-.17-2.202 1.479-4.125 3.681-4.295.389-.03.78-.003 1.16.08z"/>
            <path stroke="#FFF" stroke-linecap="round" stroke-linejoin="round" stroke-width="3" d="M18.828 38.5c0-2.675 1.05-5.105 2.761-6.899m7.24-3.101c5.522 0 10 4.477 10 10v1.732"/>
            <circle cx="28.828" cy="17.5" r="6" stroke="#FFF" stroke-linejoin="round" stroke-width="3"/>
        </g>
        <path stroke="#FFF" stroke-linecap="round" stroke-linejoin="round" stroke-width="2" d="M148 132L162 132M166 132L170 132M104 132L142 132"/>
        <path stroke="#FFF" stroke-linecap="round" stroke-linejoin="round" stroke-width="3" d="M51.708 113.406c-5.3 5.396-6.897 10.143-4.788 14.243 3.163 6.15 10.618 2.589 13.174-1.577 2.555-4.167-1.34-6.63-4.584-2.384-3.244 4.245-1.946 11.406 1.686 13.49 3.633 2.085 7.635 2.043 10.224-2.159 2.588-4.202-2.107-3.837-2.852-3.473-2.6 1.269-4.578 8.318-2.963 10.291 2.043 2.497 5.195 3.454 9.457 2.87M138.631 57.681c-.601 2.449-.444 4.56.47 6.333 3.957 7.67 16.555 1.103 17.775-4.104 1.22-5.206-2.927-6.154-7-.852-4.073 5.303-2.456 14.236 2.095 16.833 3.125 1.783 11.69 1.783 12.387-2.699.354-2.27-.697-4.005-2.243-4.401-4.935-1.263-6.797 7.167-2.856 10.385 2.628 2.146 3.262 4.66 1.904 7.542M241.88 128.95c-5.157-3.525-8.529-3.228-10.115.89-2.38 6.177 5.967 15.074-8.217 19.236"/>
        <path fill="#0085E3" d="M20.425 172.934c1.257-.536 2.753-1.367 4.489-2.494 2.262-1.47 4.004-2.84 5.224-4.11.765-.796 2.032-.82 2.828-.055.13.124.241.265.333.419.494.831.979 1.922 1.453 3.274 1.601 4.563 5.661 7.087 6.247 9.92.586 2.833-3.316 5.997-8.298 7.904-2.07.793-3.758 1.357-5.064 1.693-1.051.27-2.126-.347-2.422-1.39-.81-2.848-1.728-5.32-2.757-7.416-.809-1.65-1.763-3.224-2.862-4.723-.654-.89-.46-2.142.43-2.795.124-.091.258-.167.399-.227z"/>
        <rect width="48" height="48" x="188" y="180" fill="#FFF" rx="8"/>
        <g>
            <g transform="translate(188 173) translate(0 7)">
                <rect width="51" height="51" x="-1.5" y="-1.5" fill="#FFF" stroke="#242733" stroke-width="3" rx="8"/>
                <path fill="#F2F3F5" d="M8 0h32c4.418 0 8 3.582 8 8v8H0V8c0-4.418 3.582-8 8-8z"/>
                <path fill="#242733" stroke="#242733" stroke-linecap="round" stroke-linejoin="round" stroke-width="2" d="M16 30c0 4.418 3.582 8 8 8s8-3.582 8-8H16z"/>
            </g>
            <g transform="translate(188 173) translate(11)">
                <rect width="3" height="11" fill="#242733" stroke="#242733" stroke-width="4" rx="1.5"/>
                <rect width="3" height="11" x="23" fill="#242733" stroke="#242733" stroke-width="4" rx="1.5"/>
                <path stroke="#FFF" stroke-linecap="round" stroke-linejoin="round" stroke-width="2" d="M2.5 1.5L2.5 4.5M25.5 1.5L25.5 4.5"/>
            </g>
            <g stroke="#242733" stroke-linecap="round" stroke-linejoin="round" stroke-width="3">
                <path d="M.172 3c1.562 1.562 4.094 1.562 5.656 0M18.172 3c1.562 1.562 4.094 1.562 5.656 0" transform="translate(188 173) translate(12 24)"/>
            </g>
        </g>
    </g>
</svg>
