<?xml version="1.0" encoding="UTF-8"?>
<svg width="123px" height="32px" viewBox="0 0 123 32" version="1.1" xmlns="http://www.w3.org/2000/svg" xmlns:xlink="http://www.w3.org/1999/xlink">
    <!-- Generator: Sketch 64 (93537) - https://sketch.com -->
    <title>Group</title>
    <desc>Created with Sketch.</desc>
    <g id="Weekl-Promo" stroke="none" stroke-width="1" fill="none" fill-rule="evenodd">
        <g id="Web-landing-—-Nails" transform="translate(-227.000000, -652.000000)" fill="#FFFFFF" fill-rule="nonzero">
            <g id="Group-7" transform="translate(208.000000, 640.000000)">
                <g id="Group-51">
                    <g id="Download_on_the_App_Store_Badge_RU_RGB_blk_100317" transform="translate(19.000000, 12.000000)">
                        <g id="Group">
                            <g id="Group-50">
                                <g id="_Group_">
                                    <g id="_Group_2">
                                        <g id="_Group_3">
                                            <path d="M18.4078523,15.1392985 C18.4347532,13.0513343 19.5293821,11.1226906 21.3082338,10.0290708 C20.1809386,8.41909264 18.3604825,7.4349272 16.3960369,7.37346462 C14.32928,7.15652923 12.3256492,8.61017846 11.2724677,8.61017846 C10.1989046,8.61017846 8.57736615,7.39500308 6.83123692,7.43092923 C4.53378617,7.50515497 2.44386114,8.77972367 1.32610462,10.7883077 C-1.05420308,14.90944 0.721292308,20.9661169 3.00142769,24.2973292 C4.14222769,25.9285292 5.47549538,27.7506215 7.22004923,27.6860062 C8.9272,27.6152 9.56478769,26.5974154 11.6254646,26.5974154 C13.6670154,26.5974154 14.2652062,27.6860062 16.0451569,27.6449231 C17.8770092,27.6151877 19.0311631,26.0064738 20.1319385,24.3598277 C20.9516014,23.1975381 21.5823307,21.912955 22.0007631,20.5536615 C19.8250789,19.6334539 18.4103917,17.5015807 18.4078523,15.1392985 L18.4078523,15.1392985 Z" id="_Path_"></path>
                                            <path d="M15.0458462,5.18263385 C16.0446481,3.9836085 16.5367199,2.44246456 16.4175631,0.886486154 C14.8916158,1.04675752 13.4820679,1.77606114 12.4697723,2.92908308 C11.4701769,4.06669419 10.9637842,5.55499407 11.0621292,7.06617846 C12.6085376,7.08210063 14.0768198,6.38788088 15.0458462,5.18263385 L15.0458462,5.18263385 Z" id="_Path_2"></path>
                                        </g>
                                    </g>
                                    <g id="Group" transform="translate(29.769231, 12.076923)">
                                        <path d="M10.2181785,11.4795692 L4.39245538,11.4795692 L2.99341538,15.6105846 L0.525870769,15.6105846 L6.04390154,0.326892308 L8.60759385,0.326892308 L14.1256246,15.6105846 L11.616,15.6105846 L10.2181785,11.4795692 Z M4.99581538,9.57331692 L9.61366154,9.57331692 L7.33721846,2.86898462 L7.27351385,2.86898462 L4.99581538,9.57331692 Z" id="Shape"></path>
                                        <path d="M26.0426954,10.0396677 C26.0426954,13.5024123 24.1893292,15.7271631 21.3924554,15.7271631 C19.9467757,15.8027872 18.5850245,15.0455762 17.8864492,13.7776246 L17.8335262,13.7776246 L17.8335262,19.2968615 L15.5462646,19.2968615 L15.5462646,4.46754462 L17.7602462,4.46754462 L17.7602462,6.32091077 L17.8023138,6.32091077 C18.5319241,5.06090821 19.8951437,4.30402318 21.3503877,4.35095385 C24.1784615,4.35096615 26.0426954,6.58653538 26.0426954,10.0396677 Z M23.6917292,10.0396677 C23.6917292,7.78366769 22.5258585,6.30048 20.7470154,6.30048 C18.9994215,6.30048 17.8239385,7.81490462 17.8239385,10.0396677 C17.8239385,12.2848615 18.9994215,13.7884677 20.7470154,13.7884677 C22.5258708,13.7884677 23.6917292,12.3161108 23.6917292,10.0396677 Z" id="Shape"></path>
                                        <path d="M38.3071138,10.0396677 C38.3071138,13.5024123 36.4537477,15.7271631 33.6568738,15.7271631 C32.2111942,15.8027872 30.849443,15.0455762 30.1508677,13.7776246 L30.0979446,13.7776246 L30.0979446,19.2968615 L27.8106831,19.2968615 L27.8106831,4.46754462 L30.0246154,4.46754462 L30.0246154,6.32091077 L30.0666831,6.32091077 C30.7962986,5.06090897 32.1595235,4.3040284 33.6147692,4.35096615 C36.4429292,4.35096615 38.3071138,6.58653538 38.3071138,10.0396677 Z M35.95616,10.0396677 C35.95616,7.78366769 34.7902769,6.30048 33.0114338,6.30048 C31.26384,6.30048 30.0883569,7.81490462 30.0883569,10.0396677 C30.0883569,12.2848615 31.26384,13.7884677 33.0114338,13.7884677 C34.7902892,13.7884677 35.95616,12.3161108 35.95616,10.0396677 L35.95616,10.0396677 Z" id="Shape"></path>
                                        <path d="M46.4128862,11.35216 C46.5823631,12.8677908 48.0547323,13.8629292 50.0667323,13.8629292 C51.9946215,13.8629292 53.3816369,12.8677415 53.3816369,11.5011446 C53.3816369,10.3148431 52.5450954,9.60452923 50.5643323,9.11773538 L48.5835692,8.64056615 C45.7770831,7.96268308 44.4741908,6.65017846 44.4741908,4.52036923 C44.4741908,1.88334769 46.7722708,0.0720492308 50.0354831,0.0720492308 C53.2650215,0.0720492308 55.4789908,1.88334769 55.5535138,4.52036923 L53.2445908,4.52036923 C53.1063754,2.99512615 51.8455508,2.07446154 50.0030031,2.07446154 C48.1604554,2.07446154 46.8996431,3.00595692 46.8996431,4.36172308 C46.8996431,5.44225231 47.7049354,6.07806769 49.67488,6.5648 L51.3587692,6.97826462 C54.4945846,7.71985231 55.7974769,8.97949538 55.7974769,11.21504 C55.7974769,14.0744123 53.5198277,15.86528 49.8972308,15.86528 C46.5078031,15.86528 44.2193477,14.11648 44.0715077,11.3520492 L46.4128862,11.35216 Z" id="Path"></path>
                                        <path d="M60.7337969,1.83052308 L60.7337969,4.46754462 L62.8527877,4.46754462 L62.8527877,6.27884308 L60.7337969,6.27884308 L60.7337969,12.4218708 C60.7337969,13.3761969 61.15808,13.8209108 62.0895631,13.8209108 C62.3411218,13.8165242 62.5922734,13.7988586 62.8419692,13.7679877 L62.8419692,15.5684677 C62.4231733,15.6467195 61.9975025,15.6821594 61.5715323,15.67424 C59.3155323,15.67424 58.4357169,14.82688 58.4357169,12.6658215 L58.4357169,6.27884308 L56.8155323,6.27884308 L56.8155323,4.46754462 L58.4356923,4.46754462 L58.4356923,1.83052308 L60.7337969,1.83052308 Z" id="Path"></path>
                                        <path d="M64.08,10.0396677 C64.08,6.53366154 66.1448985,4.33053538 69.3648615,4.33053538 C72.5956308,4.33053538 74.6509169,6.53361231 74.6509169,10.0396677 C74.6509169,13.5552985 72.6064492,15.7488 69.3648615,15.7488 C66.1244185,15.7488 64.08,13.5552862 64.08,10.0396677 Z M72.3203815,10.0396677 C72.3203815,7.63462154 71.2182154,6.21515077 69.3648492,6.21515077 C67.5114831,6.21515077 66.4105231,7.64544 66.4105231,10.0396677 C66.4105231,12.4543262 67.5114831,13.8629908 69.3648492,13.8629908 C71.2182154,13.8629908 72.3203815,12.4543262 72.3203815,10.0396677 L72.3203815,10.0396677 Z" id="Shape"></path>
                                        <path d="M76.5366769,4.46754462 L78.7181785,4.46754462 L78.7181785,6.36416 L78.7711015,6.36416 C79.0753182,5.14322265 80.1940339,4.30293115 81.4513846,4.35094154 C81.7149711,4.35002121 81.9778304,4.37864707 82.23504,4.43628308 L82.23504,6.57570462 C81.9022781,6.47402255 81.5551503,6.42733697 81.2073477,6.43748923 C80.5349147,6.41020977 79.8841488,6.67819659 79.4259218,7.17108427 C78.9676948,7.66397196 78.7477865,8.33251784 78.8239385,9.00118154 L78.8239385,15.61056 L76.5366769,15.61056 L76.5366769,4.46754462 Z" id="Path"></path>
                                        <path d="M92.7806769,12.3377354 C92.4729846,14.3605662 90.5030277,15.7487877 87.9825969,15.7487877 C84.7410092,15.7487877 82.7289969,13.5769108 82.7289969,10.0925415 C82.7289969,6.59735385 84.7518277,4.33052308 87.8864492,4.33052308 C90.9693785,4.33052308 92.9080862,6.44830769 92.9080862,9.82691692 L92.9080862,10.6105723 L85.0378954,10.6105723 L85.0378954,10.7487877 C84.9644153,11.5783651 85.2508696,12.3995316 85.8243937,13.0034091 C86.3979179,13.6072867 87.2032338,13.9356717 88.0354954,13.9050338 C89.1454551,14.0090334 90.1919299,13.3716648 90.6088123,12.3377231 L92.7806769,12.3377354 Z M85.0486922,9.01202462 L90.6196185,9.01202462 C90.6611267,8.26658153 90.3897803,7.53762841 89.8709539,7.00077729 C89.3521275,6.46392617 88.6328625,6.16785281 87.8864492,6.18388923 C87.1341314,6.17939967 86.4111886,6.47561185 85.8783083,7.00668707 C85.3454281,7.53776229 85.0467646,8.2596959 85.0486922,9.01202462 L85.0486922,9.01202462 Z" id="Shape"></path>
                                    </g>
                                </g>
                                <g id="_Group_4" transform="translate(31.000000, 0.000000)">
                                    <g id="Group">
                                        <path d="M2.13944615,4.00420923 L3.12141538,4.00420923 C3.4631658,4.04676696 3.80714457,3.94449833 4.070134,3.72214486 C4.33312343,3.49979139 4.49116738,3.17760762 4.50603077,2.83353846 C4.50603077,2.15625846 3.99641846,1.71875692 3.13223385,1.71875692 C2.78235051,1.66986796 2.42756124,1.76447785 2.14847783,1.98109025 C1.86939442,2.19770264 1.68971501,2.51792407 1.65026462,2.86899692 L0.572110769,2.86899692 C0.609622531,2.23134848 0.910362146,1.63794519 1.40242499,1.2306654 C1.89448783,0.823385607 2.53363989,0.638841758 3.16706462,0.721156923 C4.61297231,0.721156923 5.63106462,1.53064615 5.63106462,2.69591385 C5.63805315,3.50035924 5.08206385,4.2003467 4.29691077,4.37560615 L4.29691077,4.46214154 C5.23724501,4.50384974 5.96719297,5.29744504 5.93032615,6.23798154 C5.86280034,6.89409889 5.53390814,7.49538318 5.01785813,7.90616549 C4.50180812,8.3169478 3.84208102,8.50261693 3.18753231,8.42128 C2.53149935,8.51072115 1.86727584,8.3298365 1.34717979,7.92010604 C0.827083732,7.51037559 0.495735858,6.90695143 0.42912,6.24820923 L1.52407385,6.24820923 C1.59017846,6.95073231 2.23561846,7.40390154 3.18753231,7.40390154 C4.13944615,7.40390154 4.76084923,6.89489231 4.76084923,6.17734154 C4.76084923,5.44957538 4.17550769,5.00125538 3.15267692,5.00125538 L2.13944615,5.00125538 L2.13944615,4.00420923 Z" id="Path"></path>
                                        <path d="M7.17430154,6.67608615 C7.17430154,5.67848615 7.91828923,5.10337231 9.23559385,5.02163692 L10.7368,4.93510154 L10.7368,4.45673846 C10.7368,3.87139692 10.3509785,3.54087385 9.60219077,3.54087385 C8.99161846,3.54087385 8.56973538,3.76503385 8.44713846,4.15686154 L7.38824615,4.15686154 C7.50002462,3.20493538 8.39666462,2.59436308 9.65387077,2.59436308 C11.0432985,2.59436308 11.8269538,3.28605538 11.8269538,4.45673846 L11.8269538,8.24339692 L10.7728615,8.24339692 L10.7728615,7.46455385 L10.6863262,7.46455385 C10.3287244,8.03332472 9.69279218,8.36573936 9.02166154,8.33470769 C8.55118292,8.38364531 8.08195834,8.23127466 7.72998869,7.91526455 C7.37801904,7.59925444 7.17615518,7.14909946 7.17430154,6.67608615 L7.17430154,6.67608615 Z M10.7368,6.20252308 L10.7368,5.73918769 L9.38338462,5.82572308 C8.62016,5.8768 8.27400615,6.13641846 8.27400615,6.62499692 C8.27400615,7.12379077 8.70669538,7.41405538 9.30169846,7.41405538 C9.65393547,7.4497248 10.0055673,7.34091306 10.276094,7.1125307 C10.5466208,6.88414833 10.7128765,6.5557523 10.7368,6.20252308 L10.7368,6.20252308 Z" id="Shape"></path>
                                        <polygon id="Path" points="14.7295877 3.62199385 14.7295877 8.24338462 13.63584 8.24338462 13.63584 2.70131692 17.2849231 2.70131692 17.2849231 3.62193231"></polygon>
                                        <path d="M23.9134892,5.46995692 C23.9134892,7.23076923 23.0228677,8.33474462 21.6238277,8.33474462 C20.9226395,8.38263527 20.2573243,8.01949989 19.9183015,7.40385231 L19.8317538,7.40385231 L19.8317538,10.0859446 L18.7380062,10.0859446 L18.7380062,2.70132923 L19.7908923,2.70132923 L19.7908923,3.61723077 L19.8726277,3.61723077 C20.2172687,2.98092961 20.8895872,2.59160525 21.6130092,2.60941538 C23.0228554,2.60937846 23.9134892,3.70852923 23.9134892,5.46995692 Z M22.7884923,5.46995692 C22.7884923,4.29928615 22.2344,3.59195077 21.3077292,3.59195077 C20.3871138,3.59195077 19.8113354,4.31430154 19.8113354,5.47476923 C19.8113354,6.62982154 20.3870523,7.35277538 21.3029169,7.35277538 C22.2344,7.35277538 22.7884923,6.64542769 22.7884923,5.46995692 Z" id="Shape"></path>
                                        <path d="M25.3702154,10.2283692 L25.3702154,9.28665846 C25.4885756,9.30169876 25.6078351,9.30852534 25.7271385,9.30708923 C26.2096805,9.34283186 26.641718,9.00947689 26.7295385,8.53364923 L26.8112738,8.26381538 L24.8052677,2.70131692 L25.9963692,2.70131692 L27.3858462,7.10336 L27.4723815,7.10336 L28.8569969,2.70131692 L30.0168492,2.70131692 L27.9507692,8.47235692 C27.4772062,9.82091077 26.9531692,10.2536123 25.82336,10.2536123 C25.732,10.2536123 25.4723815,10.2433846 25.3702154,10.2283692 Z" id="Path"></path>
                                        <path d="M30.8690092,6.67067077 L31.9579569,6.67067077 C32.0649231,7.15928615 32.52288,7.41405538 33.1634831,7.41405538 C33.8918523,7.41405538 34.3389662,7.09314462 34.3389662,6.59436308 C34.3389662,6.06011077 33.9375262,5.80530462 33.1634831,5.80530462 L32.3341538,5.80530462 L32.3341538,4.95554462 L33.1490585,4.95554462 C33.8101169,4.95554462 34.1466585,4.70134154 34.1466585,4.23800615 C34.1466585,3.83115077 33.8209354,3.52046769 33.1490585,3.52046769 C32.53728,3.52046769 32.0901662,3.78008615 32.0192123,4.21758769 L30.9651692,4.21758769 C31.129106,3.17176321 32.1003761,2.44985591 33.1490585,2.59438769 C34.4663631,2.59438769 35.2199754,3.18994462 35.2199754,4.12624 C35.2326505,4.66355953 34.8678723,5.13656946 34.3449723,5.26086154 L34.3449723,5.34739692 C34.9702544,5.4280507 35.436179,5.96396503 35.4291077,6.59438769 C35.4291077,7.64792615 34.5324677,8.34498462 33.1634831,8.34498462 C31.9531446,8.34498462 30.9699815,7.79026462 30.8690092,6.67067077 Z" id="Path"></path>
                                        <polygon id="Path" points="37.0042338 8.24338462 37.0042338 2.70131692 38.0883692 2.70131692 38.0883692 6.51323077 38.1749046 6.51323077 40.7289969 2.70132923 41.8131323 2.70132923 41.8131323 8.24339692 40.7289969 8.24339692 40.7289969 4.41107692 40.6472615 4.41107692 38.0883692 8.24340923"></polygon>
                                        <polygon id="Path" points="47.7854769 3.62199385 46.0402462 3.62199385 46.0402462 8.24338462 44.9452923 8.24338462 44.9452923 3.62199385 43.2000615 3.62199385 43.2000615 2.70137846 47.7854769 2.70137846"></polygon>
                                        <path d="M53.6773046,6.74699077 C53.3697165,7.79227578 52.3579482,8.46746007 51.2746585,8.35035077 C50.5356577,8.36985927 49.8254369,8.06354441 49.3324356,7.51267931 C48.8394343,6.96181421 48.6134931,6.22208926 48.71456,5.48977231 C48.6161814,4.75542212 48.8412778,4.01451536 49.3315333,3.45899933 C49.8217889,2.9034833 50.5289625,2.58802062 51.2698462,2.59433846 C52.8119138,2.59433846 53.7434092,3.64787692 53.7434092,5.38818462 L53.7434092,5.76984615 L49.8299569,5.76984615 L49.8299569,5.83113846 C49.7949109,6.24248565 49.9352235,6.64950238 50.2163107,6.95186762 C50.4973978,7.25423286 50.8931127,7.4238205 51.30592,7.41883077 C51.8406489,7.48276929 52.3610297,7.21735474 52.6232246,6.74695385 L53.6773046,6.74699077 Z M49.82992,4.96093538 L52.628,4.96093538 C52.6559428,4.58500565 52.5238793,4.21474939 52.2643367,3.94136033 C52.004794,3.66797128 51.6418951,3.51685928 51.2650215,3.52524308 C50.8827385,3.52004111 50.514598,3.66965066 50.2443172,3.94004972 C49.9740363,4.21044878 49.8245878,4.57865466 49.8299569,4.96093538 L49.82992,4.96093538 Z" id="Shape"></path>
                                        <path d="M58.3143262,2.70131692 L60.81312,2.70131692 C61.8972554,2.70131692 62.5330708,3.25059692 62.5330708,4.11054769 C62.5365446,4.67289932 62.1461435,5.16102645 61.5967754,5.28121846 L61.5967754,5.36775385 C62.268952,5.41022218 62.7899739,5.97193495 62.7818708,6.64540308 C62.7818708,7.61234462 62.0547077,8.24336 60.8383631,8.24336 L58.3143262,8.24336 L58.3143262,2.70131692 Z M59.3984615,3.54084923 L59.3984615,4.97593846 L60.4825969,4.97593846 C61.1436554,4.97593846 61.4597662,4.72173538 61.4597662,4.25298462 C61.4597662,3.82089846 61.1845292,3.54084923 60.604,3.54084923 L59.3984615,3.54084923 Z M59.3984615,5.78004923 L59.3984615,7.40385231 L60.6953846,7.40385231 C61.3420185,7.40385231 61.6881723,7.1184 61.6881723,6.59436308 C61.6881723,6.03968 61.2963446,5.78004923 60.5583262,5.78004923 L59.3984615,5.78004923 Z" id="Shape"></path>
                                    </g>
                                </g>
                            </g>
                        </g>
                    </g>
                </g>
            </g>
        </g>
    </g>
</svg>