<svg xmlns="http://www.w3.org/2000/svg" width="256" height="256" viewBox="0 0 256 256">
    <g fill="none" fill-rule="evenodd">
        <g>
            <g>
                <g>
                    <g transform="translate(65 76) rotate(-3 91.615 -3.301) rotate(-7 72.925 3.33) translate(0 12.09)">
                        <rect width="72.696" height="72.818" x="-1.5" y="-1.5" fill="#FFF" stroke="#242733" stroke-width="3" rx="8"/>
                        <path fill="#F2F3F5" d="M8 0h53.696c4.418 0 8 3.582 8 8v15.273H0V8c0-4.418 3.582-8 8-8z"/>
                    </g>
                    <g transform="translate(65 76) rotate(-3 91.615 -3.301) rotate(-7 72.925 3.33) rotate(-30 26.985 -81.185)">
                        <rect width="4.356" height="16" fill="#242733" stroke="#242733" stroke-width="4" rx="1.5"/>
                        <path stroke="#FFF" stroke-linecap="round" stroke-linejoin="round" d="M3.63 2.182L3.63 6.545"/>
                    </g>
                    <g transform="translate(65 76) rotate(-3 91.615 -3.301) rotate(-7 72.925 3.33) rotate(-30 13.191 -29.706)">
                        <rect width="4.356" height="16" fill="#242733" stroke="#242733" stroke-width="4" rx="1.5"/>
                        <path stroke="#FFF" stroke-linecap="round" stroke-linejoin="round" d="M3.63 2.182L3.63 6.545"/>
                    </g>
                </g>
                <path fill="#242733" stroke="#242733" stroke-linecap="round" stroke-linejoin="round" stroke-width="2" d="M40.581 55.667c0 4.338 3.23 7.855 7.213 7.855 3.984 0 7.213-3.517 7.213-7.855H40.581z" transform="translate(65 76) rotate(-3 91.615 -3.301)"/>
                <path stroke="#242733" stroke-linecap="round" stroke-linejoin="round" stroke-width="3" d="M30.516 42.546c2.421 2.108 6.09 1.851 8.194-.574M56.589 40.72c2.42 2.108 6.089 1.85 8.193-.574" transform="translate(65 76) rotate(-3 91.615 -3.301)"/>
            </g>
            <g transform="translate(65 76) rotate(17 -26.154 360.508)">
                <path fill="#FF623B" stroke="#242733" stroke-linecap="round" stroke-linejoin="round" stroke-width="3" d="M18.361 64.234L49.836 64.234 47.213 106.125 20.984 106.125z"/>
                <path fill="#FFF" stroke="#242733" stroke-linecap="round" stroke-linejoin="round" stroke-width="3" d="M15.115 55.07h37.967c1.105 0 2 .896 2 2v7.164h0-41.967v-7.163c0-1.105.895-2 2-2z"/>
                <path fill="#FFF" stroke="#242733" stroke-linecap="round" stroke-linejoin="round" stroke-width="3" d="M20.36 48.525h27.476c1.105 0 2 .896 2 2v4.546h0-31.475v-4.546c0-1.104.895-2 2-2z"/>
                <path stroke="#FFF" stroke-linecap="round" stroke-linejoin="round" stroke-width="3" d="M40.53 42.085c-8.544-4.097-11.915-9.283-10.113-15.557 2.704-9.412 2.947-22.66-16.18-25.806"/>
                <path stroke="#FFF" stroke-linecap="round" stroke-linejoin="round" stroke-width="3" d="M26.676 39.911c-4.97-1.901-6.816-5.477-5.536-10.728 1.92-7.877 3.299-19.696-12.91-18.019"/>
                <ellipse cx="34.098" cy="85.18" fill="#FFF" rx="5.246" ry="5.236"/>
            </g>
        </g>
        <path fill="#FFF" d="M221.23 103.88l-6.853.88c-.548.071-1.049-.316-1.12-.863-.024-.19.007-.383.089-.556l2.955-6.245c.082-.173.112-.366.088-.555l-.881-6.853c-.07-.548.317-1.05.864-1.12.19-.024.383.006.556.088l6.245 2.956c.173.082.366.112.555.088l6.853-.881c.548-.07 1.05.316 1.12.864.024.19-.006.383-.088.555l-2.956 6.246c-.082.173-.112.365-.088.555l.881 6.853c.07.548-.316 1.049-.864 1.12-.19.024-.383-.007-.555-.089l-6.246-2.955c-.173-.082-.365-.112-.555-.088z"/>
        <path fill="#FF623B" d="M189.679 37.171l-3.747.484c-.548.071-1.05-.316-1.12-.863-.024-.19.006-.382.087-.555l1.62-3.441c.082-.172.112-.364.088-.553l-.483-3.772c-.07-.548.318-1.05.866-1.12.19-.024.383.007.556.09l3.411 1.622c.174.082.367.113.558.089l3.747-.485c.548-.07 1.049.316 1.12.864.024.19-.006.382-.087.554l-1.621 3.442c-.081.172-.111.364-.087.553l.482 3.772c.07.548-.317 1.049-.865 1.119-.19.024-.383-.007-.556-.089l-3.411-1.622c-.174-.083-.367-.113-.558-.089z"/>
        <path fill="#FFC659" d="M70.747 201.7l-3.747.485c-.548.07-1.05-.316-1.12-.864-.024-.189.006-.381.087-.554l1.62-3.441c.082-.173.112-.364.088-.553L67.192 193c-.07-.548.318-1.048.865-1.119.19-.024.384.007.557.09l3.411 1.622c.174.082.367.113.558.088l3.747-.484c.547-.07 1.049.316 1.12.864.024.19-.006.381-.087.554l-1.621 3.441c-.081.173-.112.365-.087.553l.482 3.773c.07.548-.317 1.049-.865 1.119-.19.024-.383-.007-.556-.09l-3.412-1.621c-.173-.083-.367-.114-.557-.09z"/>
    </g>
</svg>
