<svg xmlns="http://www.w3.org/2000/svg" width="288" height="184" viewBox="0 0 288 184">
    <g fill="none" fill-rule="evenodd" transform="translate(0 -1)">
        <g stroke-linecap="round" stroke-linejoin="round" transform="rotate(24 81.75 394.757)">
            <ellipse cx="56.5" cy="29" stroke="#242733" stroke-width="3" rx="56.5" ry="14"/>
            <path stroke="#242733" stroke-width="3" d="M113 29c0-2.761-25.118-7.101-56.322-7.101C25.474 21.899 0 26.239 0 29M75.862 41.58c0-2.45-1.982-4.694-5.272-6.433M53.362 31.58c-12.426 0-22.5 4.477-22.5 10"/>
            <path fill="#242733" stroke="#242733" stroke-width="3" d="M80.5 15c0-8.284-10.745-15-24-15s-24 6.716-24 15c4.934-.818 12.319-1.092 22.153-.82 8.011.22 16.627.494 25.847.82z"/>
            <path stroke="#FFF" stroke-width="2" d="M78.47 13.08c-.517-1.347-1.324-2.624-2.38-3.803m-3.793-3.172c-4.358-2.788-10.44-4.519-17.169-4.519"/>
        </g>
        <path fill="#4D6EFF" d="M212.283 67.55c-2.343 6.56-7.043 7.658-9.887 14.874-1.31 3.321-3.519 11.147 0 16.739 3.518 5.591-2.235 13.461-6.295 16.141-7.484 4.941-6.601 8.728 3.899 15.972s5 26.873 5 34.724c0 7.85-116.706 11.109-144 11.109-18.196 0-30.95-3.703-38.263-11.109 1.501-13.894 8.165-20.841 19.99-20.841 17.74 0 8.375-13.437 15.116-29.855 6.74-16.417 21.775-2.87 27.575-17.875 5.8-15.005 18.343-19.972 25.835-17.488 7.492 2.483 14.935 4.406 21.803-6.494C139.925 62.547 160 76.6 170 65.6c5.593-6.153 13.889-7.235 15.992-10.892.675-1.172 1.822-1.758 3.442-1.758 16.795 5.36 24.411 10.227 22.85 14.6z"/>
        <ellipse cx="114.5" cy="166" fill="#825DDE" rx="93.5" ry="15"/>
        <path stroke="#FFF" stroke-linecap="round" stroke-linejoin="round" stroke-width="2" d="M188.386 77.61c-.851 8.77-3.751 13.458-8.7 14.066-7.424.911-16.039 2.37-12.551 16.733M163.735 80.132c-2.446 4.004-4.904 5.583-7.374 4.736-3.705-1.27-8.098-2.551-9.807 5.129M211 167c0-3.117-11.468-7.248-29.798-10.531m-30.691-3.942c-11.17-.954-23.359-1.527-36.093-1.527-21.095 0-40.51 1.571-56.241 3.846m-15.018 2.597C28.108 160.542 19 164.184 19 167"/>
        <g transform="translate(78 100)">
            <g>
                <g transform="rotate(-112 31.686 26.953) translate(0 9)">
                    <rect width="51" height="51" x="-1.5" y="-1.5" fill="#FFF" stroke="#242733" stroke-width="3" rx="8"/>
                    <path fill="#F2F3F5" d="M8 0h32c4.418 0 8 3.582 8 8v8H0V8c0-4.418 3.582-8 8-8z"/>
                    <circle cx="20" cy="16" r="2" fill="#242733"/>
                    <circle cx="40" cy="16" r="2" fill="#242733"/>
                </g>
                <g transform="rotate(-112 31.686 26.953) rotate(-30 19.866 -55.579)">
                    <rect width="3" height="11" fill="#242733" stroke="#242733" stroke-width="4" rx="1.5"/>
                    <path stroke="#FFF" stroke-linecap="round" stroke-linejoin="round" d="M2.5 1.5L2.5 4.5"/>
                </g>
                <g transform="rotate(-112 31.686 26.953) rotate(-30 10.366 -20.124)">
                    <rect width="3" height="11" fill="#242733" stroke="#242733" stroke-width="4" rx="1.5"/>
                    <path stroke="#FFF" stroke-linecap="round" stroke-linejoin="round" d="M2.5 1.5L2.5 4.5"/>
                </g>
            </g>
            <circle cx="46.5" cy="20.5" r="6.5" fill="#242733"/>
        </g>
        <path stroke="#242733" stroke-linecap="round" stroke-linejoin="round" stroke-width="3" d="M215.13 68.512c1.037-1.95-4.645-7-12.691-11.278-8.046-4.278-16.7-5.386-17.738-3.436M211 77.61c-5.568 8.268-6.859 13.891-3.873 16.87 8.73 8.707-.829 13.862-3.593 20.55M145.415 63.541c-8.265-.521-13.32 1.115-15.163 4.908-5.392 11.09-14.776 7.24-21.999 6.802M69.59 102.739c-9.792 0-15.58 5.273-17.367 15.82"/>
        <path fill="#F2F3F5" d="M104.927 50.976l-5.204.669c-.547.07-1.049-.317-1.119-.865-.024-.19.006-.382.088-.555l2.244-4.742c.082-.173.113-.366.088-.556l-.669-5.204c-.07-.547.317-1.049.865-1.119.19-.024.382.006.555.088l4.742 2.244c.173.082.366.113.556.088l5.204-.669c.547-.07 1.049.317 1.119.865.024.19-.006.382-.088.555l-2.244 4.742c-.082.173-.113.366-.088.556l.669 5.204c.07.547-.317 1.049-.865 1.119-.19.024-.382-.006-.555-.088l-4.742-2.244c-.173-.082-.366-.113-.556-.088zM246.701 125.747l-2.646.34c-.548.07-1.049-.316-1.12-.864-.024-.19.007-.382.089-.555l1.14-2.412c.083-.173.113-.365.089-.555l-.34-2.646c-.07-.548.316-1.049.864-1.12.19-.024.382.007.555.089l2.412 1.14c.173.083.365.113.555.089l2.646-.34c.548-.07 1.049.316 1.12.864.024.19-.007.382-.089.555l-1.14 2.412c-.083.173-.113.365-.089.555l.34 2.646c.07.548-.316 1.049-.864 1.12-.19.024-.382-.007-.555-.089l-2.412-1.14c-.173-.083-.365-.113-.555-.089zM38.701 30.747l-2.646.34c-.548.07-1.049-.316-1.12-.864-.024-.19.007-.382.089-.555l1.14-2.412c.083-.173.113-.365.089-.555l-.34-2.646c-.07-.548.316-1.049.864-1.12.19-.024.382.007.555.089l2.412 1.14c.173.083.365.113.555.089l2.646-.34c.548-.07 1.049.316 1.12.864.024.19-.007.382-.089.555l-1.14 2.412c-.083.173-.113.365-.089.555l.34 2.646c.07.548-.316 1.049-.864 1.12-.19.024-.382-.007-.555-.089l-2.412-1.14c-.173-.083-.365-.113-.555-.089zM261.954 31.531l-2.646.34c-.548.07-1.049-.316-1.12-.864-.024-.19.007-.382.089-.555l1.14-2.412c.083-.173.113-.365.089-.555l-.34-2.646c-.07-.548.316-1.05.864-1.12.19-.024.382.007.555.088l2.412 1.142c.173.081.365.112.555.087l2.646-.34c.548-.07 1.05.317 1.12.865.024.19-.007.382-.088.555l-1.142 2.411c-.081.173-.112.366-.088.556l.34 2.646c.071.548-.316 1.049-.864 1.12-.19.024-.382-.007-.555-.089l-2.412-1.14c-.172-.083-.365-.113-.555-.089z"/>
        <path stroke="#FFF" stroke-linecap="round" stroke-linejoin="round" stroke-width="2" d="M163.735 80.132c-2.446 4.004-4.904 5.583-7.374 4.736-3.705-1.27-8.098-2.551-9.807 5.129"/>
    </g>
</svg>
