<svg xmlns="http://www.w3.org/2000/svg" width="32" height="32" viewBox="0 0 32 32">
    <g fill="none" fill-rule="evenodd">
        <circle cx="16" cy="16" r="16" fill="#F2F3F5"/>
        <path fill="#9297AE" d="M21.244 9.577c.326-.325.853-.325 1.179 0 .325.326.325.853 0 1.179l-5.245 5.243 5.245 5.245c.325.326.325.853 0 1.179-.326.325-.853.325-1.179 0L16 17.178l-5.243 5.245c-.298.298-.767.323-1.093.074l-.086-.074c-.325-.326-.325-.853 0-1.179L14.821 16l-5.244-5.243c-.325-.326-.325-.853 0-1.179.326-.325.853-.325 1.179 0l5.243 5.244z"/>
    </g>
</svg>
