<svg xmlns="http://www.w3.org/2000/svg" width="256" height="256" viewBox="0 0 256 256">
    <defs>
        <filter id="prefix__a" width="798.2%" height="798.1%" x="-349.1%" y="-349.1%" filterUnits="objectBoundingBox">
            <feGaussianBlur in="SourceGraphic" stdDeviation="10"/>
        </filter>
    </defs>
    <g fill="none" fill-rule="evenodd">
        <g>
            <g>
                <g transform="translate(25 6) scale(-1 1) rotate(35 -82.825 -261.346) scale(-1 1) rotate(-7 33.394 672.81) translate(0 13.113)">
                    <rect width="73.975" height="74.147" x="-1.5" y="-1.5" fill="#FFF" stroke="#242733" stroke-width="3" rx="8"/>
                    <path fill="#F2F3F5" d="M8 0h54.975c4.418 0 8 3.582 8 8v15.716H0V8c0-4.418 3.582-8 8-8z"/>
                </g>
                <g transform="translate(25 6) scale(-1 1) rotate(35 -82.825 -261.346) scale(-1 1) rotate(-7 33.394 672.81) rotate(-30 28.958 -82.273)">
                    <rect width="4.436" height="16.304" fill="#242733" stroke="#242733" stroke-width="4" rx="1.5"/>
                    <path stroke="#FFF" stroke-linecap="round" stroke-linejoin="round" d="M3.697 2.223L3.697 6.67"/>
                </g>
                <g transform="translate(25 6) scale(-1 1) rotate(35 -82.825 -261.346) scale(-1 1) rotate(-7 33.394 672.81) rotate(-30 14.91 -29.848)">
                    <rect width="4.436" height="16.304" fill="#242733" stroke="#242733" stroke-width="4" rx="1.5"/>
                    <path stroke="#FFF" stroke-linecap="round" stroke-linejoin="round" d="M3.697 2.223L3.697 6.67"/>
                </g>
            </g>
            <path stroke="#242733" stroke-linecap="round" stroke-linejoin="round" stroke-width="3" d="M58.985 47.39L50.274 49.779 56.025 56.284" transform="translate(25 6) scale(-1 1) rotate(35 -82.825 -261.346) rotate(-8 54.63 51.837)"/>
            <path stroke="#242733" stroke-linecap="round" stroke-linejoin="round" stroke-width="3" d="M29.412 44.424L20.696 46.817 26.445 53.316" transform="translate(25 6) scale(-1 1) rotate(35 -82.825 -261.346) scale(-1 1) rotate(-27 0 153.229)"/>
            <path fill="#242733" stroke="#242733" stroke-linecap="round" stroke-linejoin="round" stroke-width="2" d="M25.703 63.745c0 6.627 5.373 12 12 12 6.628 0 12-5.373 12-12h-24z" transform="translate(25 6) scale(-1 1) rotate(35 -82.825 -261.346)"/>
        </g>
        <path fill="#FFF" d="M17.32 174.045l-5.367-3.997c-.443-.33-.535-.956-.205-1.4.114-.153.27-.27.449-.337l6.26-2.363c.18-.068.335-.185.45-.339l3.996-5.367c.33-.443.956-.535 1.4-.205.153.115.27.27.337.45l2.363 6.26c.067.18.185.335.338.45l5.367 3.997c.443.33.535.956.205 1.399-.115.153-.27.27-.45.338l-6.26 2.363c-.179.068-.334.185-.449.338L21.758 181c-.33.443-.956.534-1.4.205-.153-.115-.27-.27-.338-.45l-2.362-6.26c-.068-.18-.185-.335-.338-.45zM101.452 172.707l-4.097.526c-.548.07-1.049-.316-1.12-.864-.023-.19.007-.382.089-.555l1.767-3.734c.081-.173.112-.365.088-.555l-.527-4.097c-.07-.548.316-1.049.864-1.12.19-.024.383.007.555.089l3.734 1.767c.173.081.366.112.555.088l4.097-.527c.548-.07 1.05.317 1.12.864.024.19-.007.383-.088.556l-1.767 3.733c-.082.173-.113.366-.088.556l.527 4.096c.07.548-.317 1.05-.865 1.12-.19.024-.382-.006-.555-.088l-3.734-1.767c-.172-.082-.365-.112-.555-.088z" transform="translate(25 6)"/>
        <path fill="#FFF" d="M5.171 133.905l-2.192.642c-.53.155-1.086-.149-1.241-.679-.054-.183-.054-.378 0-.562l.642-2.193c.054-.184.054-.379 0-.562l-.642-2.194c-.156-.53.148-1.085.678-1.24.184-.054.379-.054.563 0l2.192.642c.184.054.379.054.562 0l2.193-.642c.53-.156 1.086.148 1.241.678.054.184.054.379 0 .562l-.642 2.194c-.054.183-.054.378 0 .562l.642 2.193c.155.53-.148 1.086-.678 1.24-.184.055-.38.055-.563 0l-2.192-.641c-.184-.054-.38-.054-.563 0z" filter="url(#prefix__a)" transform="translate(25 6) rotate(9 5.452 130.832)"/>
        <path fill="#FF623B" d="M13.347 84.919l-6.012.772c-.548.07-1.05-.316-1.12-.864-.024-.19.006-.382.088-.555l2.593-5.48c.082-.173.113-.366.088-.555l-.773-6.014c-.07-.547.317-1.049.865-1.119.19-.024.382.006.555.088l5.479 2.593c.173.082.366.113.555.088l6.013-.773c.547-.07 1.048.317 1.119.864.024.19-.006.383-.088.556L20.116 80c-.082.173-.112.365-.088.555l.773 6.013c.07.548-.317 1.05-.864 1.12-.19.024-.383-.006-.556-.088l-5.479-2.593c-.173-.082-.365-.113-.555-.088zM151.078 179.169l-6.013.772c-.547.07-1.049-.316-1.12-.864-.023-.19.007-.382.089-.555l2.593-5.48c.082-.173.112-.366.088-.555l-.773-6.014c-.07-.547.317-1.049.864-1.119.19-.024.383.006.556.088l5.479 2.593c.173.082.365.113.555.088l6.012-.773c.548-.07 1.05.317 1.12.864.024.19-.007.383-.088.556l-2.593 5.48c-.082.173-.113.365-.088.555l.773 6.013c.07.548-.317 1.05-.865 1.12-.19.024-.382-.006-.555-.088l-5.48-2.593c-.172-.082-.365-.113-.554-.088z" transform="translate(25 6)"/>
        <path fill="#FFC659" d="M131.267 214.467l-12.255 1.576c-.548.07-1.049-.317-1.12-.865-.024-.19.007-.382.089-.555l5.285-11.17c.082-.173.112-.366.088-.556l-1.575-12.257c-.07-.548.316-1.049.864-1.12.19-.024.382.007.555.089l11.169 5.286c.173.082.366.112.555.088l12.256-1.576c.548-.07 1.049.317 1.12.864.024.19-.007.383-.089.556l-5.285 11.17c-.082.173-.113.366-.088.555l1.575 12.258c.07.548-.316 1.049-.864 1.12-.19.024-.383-.007-.555-.089l-11.17-5.286c-.172-.082-.365-.112-.555-.088z" transform="translate(25 6)"/>
        <path stroke="#FFF" stroke-linecap="round" stroke-linejoin="round" stroke-width="3" d="M82.538 88.124L41.613 103.871M156.025 125.306L136.279 161.447M121.671 102.258c-9.931 18.416-21.818 28.267-35.66 29.555-20.764 1.932-44.872 4.916-35.605 31.395M112.714 95.104c-4.394 8.004-9.989 11.464-16.786 10.379-10.195-1.628-14.372-.029-16.436 9.251M91.584 153.783c-8.356 3.68-12.29 8.952-11.8 15.819.732 10.3-1.225 14.322-10.648 15.57" transform="translate(25 6)"/>
    </g>
</svg>
