<svg xmlns="http://www.w3.org/2000/svg" width="288" height="296" viewBox="0 0 288 296">
    <g fill="none" fill-rule="evenodd" transform="translate(22 24)">
        <g transform="rotate(-90 89 39)">
            <rect width="128" height="192" stroke="#FFF" stroke-width="3" rx="8"/>
            <rect width="32" height="8" x="76" y="28" fill="#0085E3" rx="4" transform="rotate(90 92 32)"/>
        </g>
        <rect width="72" height="138" x="143" y="54" fill="#FFF" stroke="#FFF" stroke-width="3" rx="8"/>
        <g transform="translate(130 66)">
            <rect width="72" height="138" x=".468" fill="#FFF" stroke="#242733" stroke-width="3" rx="8"/>
            <circle cx="17.5" cy="21.5" r="10.5" fill="#FF623B"/>
            <path fill="#242733" d="M25 .925h22V3c0 1.657-1.343 3-3 3H28c-1.657 0-3-1.343-3-3V.925z"/>
            <rect width="32" height="8" x="7" y="40" fill="#0085E3" rx="4"/>
            <path fill="#CCCEDA" d="M0 72h73v58c0 4.418-3.582 8-8 8H8c-4.418 0-8-3.582-8-8V72z"/>
            <rect width="72" height="138" x=".468" stroke="#242733" stroke-width="3" rx="8"/>
            <path stroke="#242733" stroke-linecap="round" stroke-linejoin="round" stroke-width="3" d="M34 23.5L39 23.5M46.5 23.5L51.5 23.5M59 23.5L64 23.5M29 131L45 131"/>
        </g>
        <g>
            <g transform="rotate(-7 1391.213 79.3) translate(0 9)">
                <rect width="51" height="51" x="-1.5" y="-1.5" fill="#FFF" stroke="#242733" stroke-width="3" rx="8"/>
                <path fill="#F2F3F5" d="M8 0h32c4.418 0 8 3.582 8 8v8H0V8c0-4.418 3.582-8 8-8z"/>
                <circle cx="20" cy="16" r="2" fill="#242733"/>
                <circle cx="40" cy="16" r="2" fill="#242733"/>
                <path fill="#242733" stroke="#242733" stroke-linecap="round" stroke-linejoin="round" stroke-width="2" d="M20 28c0 4.418 3.582 8 8 8s8-3.582 8-8H20z"/>
            </g>
            <g transform="rotate(-7 1391.213 79.3) rotate(-30 19.866 -55.579)">
                <rect width="3" height="11" fill="#242733" stroke="#242733" stroke-width="4" rx="1.5"/>
                <path stroke="#FFF" stroke-linecap="round" stroke-linejoin="round" d="M2.5 1.5L2.5 4.5"/>
            </g>
            <g transform="rotate(-7 1391.213 79.3) rotate(-30 10.366 -20.124)">
                <rect width="3" height="11" fill="#242733" stroke="#242733" stroke-width="4" rx="1.5"/>
                <path stroke="#FFF" stroke-linecap="round" stroke-linejoin="round" d="M2.5 1.5L2.5 4.5"/>
            </g>
        </g>
        <path fill="#FFC659" d="M12.737 77.837l-4.493-5.484c-.35-.427-.287-1.057.14-1.407.148-.121.328-.198.518-.22l7.04-.824c.19-.022.37-.098.518-.22l5.484-4.492c.427-.35 1.057-.287 1.407.14.121.148.197.328.22.517l.824 7.041c.022.19.098.37.22.518l4.492 5.483c.35.428.287 1.058-.14 1.408-.148.12-.328.197-.518.22l-7.04.823c-.19.023-.37.099-.518.22l-5.484 4.492c-.427.35-1.057.288-1.407-.14-.121-.147-.197-.327-.22-.517l-.824-7.04c-.022-.19-.098-.37-.22-.518zM101.192 149.329l-.03-5.247c-.003-.552.442-1.002.995-1.005.19-.002.378.052.54.155l4.434 2.805c.161.102.349.156.54.155l5.247-.03c.552-.003 1.002.442 1.005.995.002.19-.052.378-.155.54l-2.805 4.434c-.102.161-.156.349-.155.54l.03 5.247c.003.552-.442 1.002-.995 1.005-.19.002-.378-.052-.54-.155l-4.434-2.805c-.161-.102-.349-.156-.54-.155l-5.247.03c-.552.003-1.002-.442-1.005-.995-.002-.19.052-.378.155-.54l2.805-4.434c.102-.161.156-.349.155-.54zM80.701 198.747l-2.646.34c-.548.07-1.049-.316-1.12-.864-.024-.19.007-.382.089-.555l1.14-2.412c.083-.173.113-.365.089-.555l-.34-2.646c-.07-.548.316-1.049.864-1.12.19-.024.382.007.555.089l2.412 1.14c.173.083.365.113.555.089l2.646-.34c.548-.07 1.049.316 1.12.864.024.19-.007.382-.089.555l-1.14 2.412c-.083.173-.113.365-.089.555l.34 2.646c.07.548-.316 1.049-.864 1.12-.19.024-.382-.007-.555-.089l-2.412-1.14c-.173-.083-.365-.113-.555-.089z"/>
        <circle cx="60" cy="8" r="2" fill="#FFF"/>
        <circle cx="67" cy="8" r="2" fill="#FFF"/>
        <circle cx="74" cy="8" r="2" fill="#FFF"/>
        <path stroke="#FFF" stroke-linecap="round" stroke-linejoin="round" stroke-width="2" d="M51.5 16.5L179.5 16.5M190 16.5L240.5 16.5M180 141L185 141M134 141L172 141"/>
        <path stroke="#FFF" stroke-linecap="round" stroke-linejoin="round" stroke-width="3" d="M80.328 47c-7.692 6.191-10.045 10.776-7.059 13.754 8.731 8.708 2.765 13.704 0 20.391M69.508 87.17c-3.139 4.338-5.689 7.307-7.65 8.91M119.133 104.614c-3.37-5.26-6.59-6.305-9.66-3.135-4.603 4.757-.397 16.208-15.079 14.497M78.386 134.61c-.851 8.77-3.751 13.458-8.7 14.066-7.424.911-16.039 2.37-12.551 16.733"/>
    </g>
</svg>
